<?xml version="1.0" encoding="UTF-8"?>
<svg version="1.1" xmlns="http://www.w3.org/2000/svg" width="500" height="500">
<path d="M0 0 C2.1055712 1.02287314 4.14003221 2.1369325 6.18334961 3.27905273 C7.84897895 4.18330984 9.51573338 5.08549633 11.18334961 5.98608398 C12.11663086 6.49220215 13.04991211 6.99832031 14.01147461 7.51977539 C21.02196483 11.26999915 28.11440064 14.86532062 35.18774414 18.49514771 C58.36207029 30.39527341 58.36207029 30.39527341 60.18334961 32.21655273 C60.27004393 33.70527133 60.29038455 35.19799773 60.28100586 36.68920898 C60.2777832 37.58833008 60.27456055 38.48745117 60.27124023 39.41381836 C60.26286133 40.3593457 60.25448242 41.30487305 60.24584961 42.27905273 C60.24133789 43.22844727 60.23682617 44.1778418 60.23217773 45.15600586 C60.22035071 47.50958339 60.20386986 49.86303751 60.18334961 52.21655273 C55.4254323 51.65035144 51.79640022 49.48237031 47.74584961 47.09155273 C41.57978332 43.53645101 35.34535106 40.24248022 28.95678711 37.09936523 C24.43049767 34.8594762 19.96404245 32.5071583 15.49584961 30.15405273 C14.68253174 29.72769531 13.86921387 29.30133789 13.03125 28.86206055 C9.55477007 27.03199905 6.09541379 25.19082634 2.70288086 23.20874023 C1.74768555 22.65444336 0.79249023 22.10014648 -0.19165039 21.52905273 C-0.98313477 21.05081055 -1.77461914 20.57256836 -2.59008789 20.07983398 C-5.46481416 18.96524713 -6.90611565 19.27085848 -9.81665039 20.21655273 C-11.94693751 21.33536002 -11.94693751 21.33536002 -14.06665039 22.77905273 C-18.44145164 25.50043645 -22.88891931 27.7121867 -27.56665039 29.84155273 C-36.44917979 33.91195621 -44.98012569 38.56060281 -53.52758789 43.28686523 C-54.38707031 43.7615625 -55.24655273 44.23625977 -56.13208008 44.7253418 C-58.0332542 45.78139596 -59.92925023 46.84679697 -61.8215332 47.91870117 C-62.8021875 48.46816406 -63.7828418 49.01762695 -64.79321289 49.58374023 C-65.68347168 50.08760254 -66.57373047 50.59146484 -67.4909668 51.1105957 C-69.81665039 52.21655273 -69.81665039 52.21655273 -72.81665039 52.21655273 C-74.43433166 34.4718336 -74.43433166 34.4718336 -71.08227539 29.79858398 C-68.39057134 28.22842329 -65.76070781 27.24041429 -62.81665039 26.21655273 C-60.89075562 25.29584881 -59.00022543 24.31936459 -57.10620117 23.33496094 C-54.36636783 21.91333611 -51.59162967 20.56805561 -48.81665039 19.21655273 C-48.72577148 17.30229492 -48.72577148 17.30229492 -48.63305664 15.34936523 C-48.54865471 13.68008258 -48.46400653 12.01081236 -48.37915039 10.34155273 C-48.33983398 9.49979492 -48.30051758 8.65803711 -48.26000977 7.79077148 C-48.21811523 6.98510742 -48.1762207 6.17944336 -48.13305664 5.34936523 C-48.09639893 4.6057373 -48.05974121 3.86210937 -48.02197266 3.09594727 C-47.81665039 1.21655273 -47.81665039 1.21655273 -46.81665039 -0.78344727 C-44.17075025 -0.81029405 -41.52511943 -0.83021083 -38.87915039 -0.84594727 C-38.1244043 -0.85432617 -37.3696582 -0.86270508 -36.59204102 -0.87133789 C-34.66670726 -0.87997167 -32.74129458 -0.83569059 -30.81665039 -0.78344727 C-29.81665039 0.21655273 -29.81665039 0.21655273 -29.71899414 2.28295898 C-29.7305957 3.10666992 -29.74219727 3.93038086 -29.75415039 4.77905273 C-29.76317383 5.6053418 -29.77219727 6.43163086 -29.78149414 7.28295898 C-29.7930957 7.92104492 -29.80469727 8.55913086 -29.81665039 9.21655273 C-29.21715576 8.87809326 -28.61766113 8.53963379 -28 8.19091797 C-25.26173575 6.65921214 -22.50851449 5.15659953 -19.75415039 3.65405273 C-18.81120117 3.12102539 -17.86825195 2.58799805 -16.89672852 2.03881836 C-10.69621777 -1.30988953 -6.81463697 -2.93887516 0 0 Z " fill="#E74D48" transform="translate(256.816650390625,175.783447265625)"/>
<path d="M0 0 C6.15921159 1.67505586 11.46422557 4.85024118 17 7.9375 C18.9369894 9.01003724 20.87447567 10.08167772 22.8125 11.15234375 C23.71226562 11.64976074 24.61203125 12.14717773 25.5390625 12.65966797 C28.32835419 14.17883577 31.14234377 15.61461598 34 17 C34 17.66 34 18.32 34 19 C28.72 19 23.44 19 18 19 C18.00785522 21.21867798 18.00785522 21.21867798 18.01586914 23.48217773 C18.03391238 28.9481547 18.04542952 34.41412901 18.05493164 39.88012695 C18.05997341 42.24992312 18.06680665 44.61971615 18.07543945 46.98950195 C18.0875119 50.38754039 18.09322971 53.78553785 18.09765625 57.18359375 C18.10281754 58.25024765 18.10797882 59.31690155 18.11329651 60.4158783 C18.11340981 61.88729027 18.11340981 61.88729027 18.11352539 63.38842773 C18.115746 64.25668686 18.11796661 65.12494598 18.12025452 66.01951599 C18 68 18 68 17 69 C14.15664952 69.09986975 11.34302837 69.13877881 8.5 69.125 C7.70207031 69.12886719 6.90414063 69.13273437 6.08203125 69.13671875 C0.12660767 69.12660767 0.12660767 69.12660767 -1 68 C-1.09943972 65.91924591 -1.12799596 63.83508152 -1.12939453 61.75195312 C-1.13114685 61.09992416 -1.13289917 60.4478952 -1.13470459 59.77610779 C-1.13912204 57.61112847 -1.13618551 55.44623021 -1.1328125 53.28125 C-1.13348557 51.78291813 -1.13445562 50.28458637 -1.13571167 48.78625488 C-1.1371885 45.64216067 -1.13503458 42.49809483 -1.13037109 39.35400391 C-1.1246738 35.31513461 -1.12795289 31.27633176 -1.13394356 27.2374649 C-1.13754958 24.1423492 -1.13641039 21.04724935 -1.13381577 17.95213318 C-1.13314661 16.46251925 -1.13397452 14.9729039 -1.13629532 13.48329163 C-1.13882253 11.40483765 -1.13498033 9.32649269 -1.12939453 7.24804688 C-1.12859894 6.06303589 -1.12780334 4.8780249 -1.12698364 3.65710449 C-1 1 -1 1 0 0 Z " fill="#E44944" transform="translate(253,203)"/>
<path d="M0 0 C0 22.77 0 45.54 0 69 C-5.94 69 -11.88 69 -18 69 C-18 52.5 -18 36 -18 19 C-23.61 19 -29.22 19 -35 19 C-35 18.34 -35 17.68 -35 17 C-33.94683594 16.443125 -32.89367187 15.88625 -31.80859375 15.3125 C-31.11781738 14.94697021 -30.42704102 14.58144043 -29.71533203 14.20483398 C-28.18675416 13.39630968 -26.65777733 12.58853924 -25.12841797 11.78149414 C-21.28503678 9.75081095 -17.45034127 7.70720024 -13.63671875 5.62109375 C-12.62170288 5.06905273 -12.62170288 5.06905273 -11.58618164 4.50585938 C-10.30002807 3.80522349 -9.01654714 3.09965413 -7.73608398 2.38867188 C-4.92955613 0.86527282 -3.24833244 0 0 0 Z " fill="#E54944" transform="translate(249,203)"/>
<path d="M0 0 C0 0.66 0 1.32 0 2 C0.66 2 1.32 2 2 2 C4.98469636 7.72066802 5.78719678 12.56413439 5 19 C3.12832217 24.05353013 0.53825354 27.50690968 -4.125 30.25 C-10.05881433 31.79795156 -16.48914311 31.93912367 -22 29 C-22 28.34 -22 27.68 -22 27 C-22.66 27 -23.32 27 -24 27 C-24 26.34 -24 25.68 -24 25 C-24.66 25 -25.32 25 -26 25 C-29.32515085 18.34969831 -30.06476831 13.49007391 -27.875 6.3125 C-25.2411564 1.6593763 -22.3035352 -0.63033042 -17.6875 -3.375 C-11.31413692 -4.85717746 -5.56407138 -3.28137543 0 0 Z M-20 7 C-22.50304378 10.75456567 -22.45280074 12.54745934 -22 17 C-19.7412063 21.24028619 -19.7412063 21.24028619 -16 24 C-11.95815076 24.39874436 -11.95815076 24.39874436 -8 24 C-5.03949126 21.70800597 -5.03949126 21.70800597 -3 19 C-2.67 18.67 -2.34 18.34 -2 18 C-1.53922239 13.46902014 -1.28653653 10.31232607 -4.0625 6.5625 C-9.8713927 1.49516807 -14.28429122 2.21475544 -20 7 Z " fill="#D46964" transform="translate(315,298)"/>
<path d="M0 0 C1.02996094 -0.00128906 2.05992187 -0.00257813 3.12109375 -0.00390625 C4.74724609 0.00189453 4.74724609 0.00189453 6.40625 0.0078125 C7.49035156 0.00394531 8.57445312 0.00007813 9.69140625 -0.00390625 C10.72136719 -0.00261719 11.75132812 -0.00132812 12.8125 0 C14.24045898 0.00169189 14.24045898 0.00169189 15.69726562 0.00341797 C17.90625 0.1328125 17.90625 0.1328125 18.90625 1.1328125 C19.03125 3.6328125 19.03125 3.6328125 18.90625 6.1328125 C17.90625 7.1328125 17.90625 7.1328125 14.08984375 7.23046875 C12.50778318 7.22379339 10.92573841 7.21183125 9.34375 7.1953125 C8.53744141 7.19080078 7.73113281 7.18628906 6.90039062 7.18164062 C4.90231244 7.16981768 2.90427217 7.15188164 0.90625 7.1328125 C0.90625 9.1128125 0.90625 11.0928125 0.90625 13.1328125 C2.51306641 13.11541016 2.51306641 13.11541016 4.15234375 13.09765625 C5.54947743 13.08827951 6.94661299 13.07917919 8.34375 13.0703125 C9.05080078 13.06193359 9.75785156 13.05355469 10.48632812 13.04492188 C12.29318559 13.03627662 14.10012603 13.08061239 15.90625 13.1328125 C16.90625 14.1328125 16.90625 14.1328125 17.03125 16.6328125 C16.90625 19.1328125 16.90625 19.1328125 15.90625 20.1328125 C13.37575598 20.20594817 10.87320163 20.22528777 8.34375 20.1953125 C7.63283203 20.19080078 6.92191406 20.18628906 6.18945312 20.18164062 C4.42834987 20.16982114 2.66728964 20.15188513 0.90625 20.1328125 C0.90625 22.4428125 0.90625 24.7528125 0.90625 27.1328125 C6.84625 27.1328125 12.78625 27.1328125 18.90625 27.1328125 C18.90625 29.1128125 18.90625 31.0928125 18.90625 33.1328125 C17.22108046 34.81798204 15.11857212 34.26289269 12.8125 34.265625 C11.78253906 34.26691406 10.75257813 34.26820313 9.69140625 34.26953125 C8.06525391 34.26373047 8.06525391 34.26373047 6.40625 34.2578125 C5.32214844 34.26167969 4.23804688 34.26554687 3.12109375 34.26953125 C2.09113281 34.26824219 1.06117188 34.26695312 0 34.265625 C-0.95197266 34.26449707 -1.90394531 34.26336914 -2.88476562 34.26220703 C-5.09375 34.1328125 -5.09375 34.1328125 -6.09375 33.1328125 C-6.1945312 30.76882782 -6.23348215 28.43469939 -6.2265625 26.0703125 C-6.22751923 25.36382568 -6.22847595 24.65733887 -6.22946167 23.92944336 C-6.23014333 22.43310457 -6.22829005 20.93676283 -6.22412109 19.44042969 C-6.21877257 17.14251093 -6.22406651 14.84478764 -6.23046875 12.546875 C-6.22980797 11.09635373 -6.2285268 9.64583259 -6.2265625 8.1953125 C-6.22858673 7.5036499 -6.23061096 6.8119873 -6.23269653 6.09936523 C-6.2035983 0.21575816 -5.77339872 0.00684052 0 0 Z " fill="#E68D8B" transform="translate(160.09375,294.8671875)"/>
<path d="M0 0 C1.98 0 3.96 0 6 0 C7.14814997 2.29629994 7.30769809 4.07698086 7.5625 6.625 C7.64628906 7.44226563 7.73007812 8.25953125 7.81640625 9.1015625 C7.87699219 9.72804688 7.93757813 10.35453125 8 11 C8.66 11 9.32 11 10 11 C10.226875 10.46375 10.45375 9.9275 10.6875 9.375 C12.6945121 5.74326382 15.22835295 1.88582352 19 0 C21.3329866 -0.04022391 23.66706666 -0.04320247 26 0 C25.42848665 3.52948108 24.23926258 5.04936562 21.625 7.4375 C18.77955562 10.04683304 16.88687389 12.62562122 15 16 C15.69867188 16.83144531 16.39734375 17.66289062 17.1171875 18.51953125 C18.03653682 19.61712176 18.95580332 20.71478165 19.875 21.8125 C20.33519531 22.35970703 20.79539062 22.90691406 21.26953125 23.47070312 C27 30.32235054 27 30.32235054 27 34 C23.83203125 34.375 23.83203125 34.375 20 34 C17.85469637 31.98933886 16.36148777 30.34094667 14.6875 28 C13.1612223 25.96190286 11.60850034 23.97607354 10 22 C9.34 22 8.68 22 8 22 C7.93941406 22.69867188 7.87882812 23.39734375 7.81640625 24.1171875 C7.69072266 25.48230469 7.69072266 25.48230469 7.5625 26.875 C7.48128906 27.77992188 7.40007812 28.68484375 7.31640625 29.6171875 C7 32 7 32 6 34 C4.33388095 34.042721 2.66617115 34.04063832 1 34 C0 33 0 33 -0.11352539 29.85717773 C-0.11336633 28.46597303 -0.10767506 27.07476239 -0.09765625 25.68359375 C-0.0962413 24.95253922 -0.09482635 24.22148468 -0.09336853 23.46827698 C-0.08775408 21.12464368 -0.07519922 18.78110461 -0.0625 16.4375 C-0.05748686 14.85221492 -0.05292363 13.26692834 -0.04882812 11.68164062 C-0.03777997 7.7877239 -0.02050572 3.89387795 0 0 Z " fill="#CD6D69" transform="translate(257,295)"/>
<path d="M0 0 C1.2065625 0.0309375 1.2065625 0.0309375 2.4375 0.0625 C8.09494514 10.63135356 12.64712125 21.69136375 16.4375 33.0625 C10.6875 34.1875 10.6875 34.1875 8.4375 33.0625 C7.7775 31.4125 7.1175 29.7625 6.4375 28.0625 C-0.4925 27.5675 -0.4925 27.5675 -7.5625 27.0625 C-7.8925 28.7125 -8.2225 30.3625 -8.5625 32.0625 C-10.5625 34.0625 -10.5625 34.0625 -13.1875 34.1875 C-13.97125 34.14625 -14.755 34.105 -15.5625 34.0625 C-16.71972438 30.59082686 -16.41365915 30.00993171 -15.0859375 26.74609375 C-14.74699463 25.90344971 -14.40805176 25.06080566 -14.05883789 24.19262695 C-13.68879639 23.30406006 -13.31875488 22.41549316 -12.9375 21.5 C-12.38533813 20.14878052 -12.38533813 20.14878052 -11.82202148 18.77026367 C-4.11194246 0.10029128 -4.11194246 0.10029128 0 0 Z M-0.5625 11.0625 C-2.92160353 15.3262281 -2.92160353 15.3262281 -3.5625 20.0625 C-1.2525 20.0625 1.0575 20.0625 3.4375 20.0625 C2.4475 17.0925 1.4575 14.1225 0.4375 11.0625 C0.1075 11.0625 -0.2225 11.0625 -0.5625 11.0625 Z " fill="#DF544D" transform="translate(224.5625,294.9375)"/>
<path d="M0 0 C3.6875 1.5 3.6875 1.5 6 3 C5.49396008 5.16874252 5.00016187 6.99967627 4 9 C2.9790625 8.7834375 2.9790625 8.7834375 1.9375 8.5625 C-3.99071506 7.40429491 -3.99071506 7.40429491 -10 7 C-9.99590398 8.95118489 -9.99590398 8.95118489 -9 11 C-5.77199076 12.4895084 -2.48735403 13.48129645 0.8984375 14.55859375 C4.48736965 16.22649799 5.50260233 17.37902017 7 21 C7.28272922 25.17216629 6.32559811 28.51160284 4 32 C-0.5920098 34.96484111 -5.7373308 34.74560513 -11 34 C-13.96449554 32.66852861 -16.46943161 31.03025544 -19 29 C-17.2421875 25.109375 -17.2421875 25.109375 -15.0625 24.125 C-13 24 -13 24 -10 26 C-7.48415109 26.24150773 -7.48415109 26.24150773 -4.8125 26.125 C-3.46091797 26.09792969 -3.46091797 26.09792969 -2.08203125 26.0703125 C-1.39496094 26.04710937 -0.70789063 26.02390625 0 26 C-0.54989596 24.02135964 -0.54989596 24.02135964 -2 22 C-5.01443323 20.53299299 -5.01443323 20.53299299 -8.5 19.4375 C-14.78972407 17.31541389 -14.78972407 17.31541389 -17 14 C-17.48219153 10.95546509 -17.46284898 8.04708913 -17 5 C-12.49854869 -1.00193509 -6.99504314 -0.590299 0 0 Z " fill="#D2645E" transform="translate(343,295)"/>
<path d="M0 0 C8.58 0 17.16 0 26 0 C26 2.31 26 4.62 26 7 C23.03 7 20.06 7 17 7 C17 15.58 17 24.16 17 33 C11 34 11 34 9 33 C9 24.42 9 15.84 9 7 C6.03 7 3.06 7 0 7 C-1.125 2.25 -1.125 2.25 0 0 Z " fill="#E84A44" transform="translate(353,295)"/>
<path d="M0 0 C1.5631897 0.00785522 1.5631897 0.00785522 3.15795898 0.01586914 C4.28266602 0.0190918 5.40737305 0.02231445 6.56616211 0.02563477 C7.75016602 0.03401367 8.93416992 0.04239258 10.15405273 0.05102539 C11.34192383 0.05553711 12.52979492 0.06004883 13.75366211 0.06469727 C16.69967499 0.07652864 19.64558954 0.09301252 22.59155273 0.11352539 C22.6340963 2.11307285 22.63236056 4.11394175 22.59155273 6.11352539 C22.26155273 6.44352539 21.93155273 6.77352539 21.59155273 7.11352539 C18.95155273 7.11352539 16.31155273 7.11352539 13.59155273 7.11352539 C13.59155273 15.69352539 13.59155273 24.27352539 13.59155273 33.11352539 C10.62155273 33.60852539 10.62155273 33.60852539 7.59155273 34.11352539 C5.59155273 32.11352539 5.59155273 32.11352539 5.36450195 29.59155273 C5.3802124 28.03621826 5.3802124 28.03621826 5.39624023 26.44946289 C5.40268555 25.32797852 5.40913086 24.20649414 5.41577148 23.05102539 C5.4325293 21.87540039 5.44928711 20.69977539 5.46655273 19.48852539 C5.47557617 18.30516602 5.48459961 17.12180664 5.49389648 15.90258789 C5.51752461 12.97270016 5.55046759 10.04321199 5.59155273 7.11352539 C2.62155273 7.11352539 -0.34844727 7.11352539 -3.40844727 7.11352539 C-3.45099083 5.11397793 -3.44925509 3.11310903 -3.40844727 1.11352539 C-2.40844727 0.11352539 -2.40844727 0.11352539 0 0 Z " fill="#D7817A" transform="translate(186.408447265625,294.886474609375)"/>
<path d="M0 0 C8.58 0 17.16 0 26 0 C26 1.98 26 3.96 26 6 C25.67 6.33 25.34 6.66 25 7 C22.03 7 19.06 7 16 7 C16 15.58 16 24.16 16 33 C11 34 11 34 9 33 C9 24.42 9 15.84 9 7 C6.03 7 3.06 7 0 7 C0 4.69 0 2.38 0 0 Z " fill="#E0655F" transform="translate(122,295)"/>
<path d="M0 0 C4.92127034 -0.16682272 8.50343896 -0.24828052 13 2 C11 5 11 5 8.79296875 5.5546875 C7.50326172 5.71324219 7.50326172 5.71324219 6.1875 5.875 C2.82926855 6.50284327 0.83450692 7.09410391 -2.1875 8.8125 C-5.13654776 13.99875641 -3.8486998 19.26077261 -3 25 C1.01668054 26.70656894 4.65636456 27.48898407 9 28 C8.67 28.99 8.34 29.98 8 31 C6.54176788 31.0270043 5.08339325 31.04639787 3.625 31.0625 C2.81289063 31.07410156 2.00078125 31.08570313 1.1640625 31.09765625 C-1 31 -1 31 -3 30 C-3 29.01 -3 28.02 -3 27 C-3.763125 26.896875 -4.52625 26.79375 -5.3125 26.6875 C-8.21867978 25.94405866 -9.19913049 25.34113037 -11 23 C-12.75690673 17.72927982 -12.43395637 13.39322833 -10.8125 8.1875 C-8.84752846 4.7318604 -7.63823699 3.50853729 -4 2 C-2.68 2 -1.36 2 0 2 C0 1.34 0 0.68 0 0 Z " fill="#E34B43" transform="translate(298,296)"/>
<path d="M0 0 C7.26 0 14.52 0 22 0 C22 1.32 22 2.64 22 4 C16.39 4 10.78 4 5 4 C5 6.97 5 9.94 5 13 C5.91523438 13.06058594 6.83046875 13.12117188 7.7734375 13.18359375 C8.96195313 13.26738281 10.15046875 13.35117187 11.375 13.4375 C12.55835938 13.51871094 13.74171875 13.59992188 14.9609375 13.68359375 C18 14 18 14 20 15 C20 15.66 20 16.32 20 17 C15.05 17 10.1 17 5 17 C5 19.64 5 22.28 5 25 C4.01 25.33 3.02 25.66 2 26 C2 27.32 2 28.64 2 30 C1.34 30 0.68 30 0 30 C0 20.1 0 10.2 0 0 Z " fill="#E24C44" transform="translate(155,297)"/>
<path d="M0 0 C0.99 0 1.98 0 3 0 C3 22.77 3 45.54 3 69 C-2.94 69 -8.88 69 -15 69 C-15 52.5 -15 36 -15 19 C-20.61 19 -26.22 19 -32 19 C-32 18.34 -32 17.68 -32 17 C-29.69 16.01 -27.38 15.02 -25 14 C-25.33 15.32 -25.66 16.64 -26 18 C-21.71 18 -17.42 18 -13 18 C-13 34.17 -13 50.34 -13 67 C-8.05 67.33 -3.1 67.66 2 68 C2 45.89 2 23.78 2 1 C1.34 0.67 0.68 0.34 0 0 Z " fill="#CA6E68" transform="translate(246,203)"/>
<path d="M0 0 C0.66 0.33 1.32 0.66 2 1 C1.34 3.64 0.68 6.28 0 9 C0.99 9.33 1.98 9.66 3 10 C2.67 11.65 2.34 13.3 2 15 C4.64 14.67 7.28 14.34 10 14 C10 14.66 10 15.32 10 16 C6.37 16.33 2.74 16.66 -1 17 C-1 18.32 -1 19.64 -1 21 C3.29 21 7.58 21 12 21 C12 21.33 12 21.66 12 22 C7.38 22 2.76 22 -2 22 C-2.33 23.65 -2.66 25.3 -3 27 C-5 29 -5 29 -7.625 29.125 C-8.40875 29.08375 -9.1925 29.0425 -10 29 C-11.17114413 25.48656761 -10.81057361 24.85523866 -9.453125 21.54296875 C-9.1025 20.67736328 -8.751875 19.81175781 -8.390625 18.91992188 C-8.01421875 18.01822266 -7.6378125 17.11652344 -7.25 16.1875 C-6.8890625 15.29740234 -6.528125 14.40730469 -6.15625 13.49023438 C-4.27521675 8.89328898 -2.2995944 4.40270447 0 0 Z " fill="#E1635C" transform="translate(219,300)"/>
<path d="M0 0 C7.26 0 14.52 0 22 0 C22 0.99 22 1.98 22 3 C19.03 3 16.06 3 13 3 C13 11.91 13 20.82 13 30 C11.68 30 10.36 30 9 30 C9 21.09 9 12.18 9 3 C6.03 3 3.06 3 0 3 C0 2.01 0 1.02 0 0 Z " fill="#E54A44" transform="translate(185,297)"/>
<path d="M0 0 C0.33 0 0.66 0 1 0 C2.19388403 45.18978067 2.19388403 45.18978067 2 66 C7.28 66 12.56 66 18 66 C18 50.49 18 34.98 18 19 C18.33 19 18.66 19 19 19 C19.0252689 25.81761894 19.04283244 32.63522589 19.05493164 39.45288086 C19.05997333 41.77417451 19.06680651 44.09546497 19.07543945 46.41674805 C19.08751225 49.74528795 19.09322979 53.07378602 19.09765625 56.40234375 C19.10281754 57.44712387 19.10797882 58.49190399 19.11329651 59.56834412 C19.11340981 61.00972496 19.11340981 61.00972496 19.11352539 62.48022461 C19.115746 63.33071884 19.11796661 64.18121307 19.12025452 65.05747986 C19 67 19 67 18 68 C15.15664952 68.09986975 12.34302837 68.13877881 9.5 68.125 C8.70207031 68.12886719 7.90414063 68.13273437 7.08203125 68.13671875 C1.12660767 68.12660767 1.12660767 68.12660767 0 67 C-0.09417773 64.91380978 -0.11742878 62.82439523 -0.11352539 60.73608398 C-0.11367142 60.08244873 -0.11381744 59.42881348 -0.1139679 58.75537109 C-0.11326883 56.58557872 -0.10547678 54.41587121 -0.09765625 52.24609375 C-0.09579205 50.74536689 -0.09436816 49.24463943 -0.09336853 47.74391174 C-0.08954352 43.78681774 -0.0797134 39.82976022 -0.06866455 35.87268066 C-0.05845006 31.83765151 -0.05387083 27.80261647 -0.04882812 23.76757812 C-0.03809111 15.84503531 -0.0210149 7.92252219 0 0 Z " fill="#EFA8A6" transform="translate(252,204)"/>
<path d="M0 0 C0.99 0 1.98 0 3 0 C3.33 4.29 3.66 8.58 4 13 C5.98 12.67 7.96 12.34 10 12 C10 12.99 10 13.98 10 15 C10.7425 15 11.485 15 12.25 15 C15.52984992 16.1926727 15.78898905 16.91778117 17.3125 19.9375 C19 23.61264822 19 23.61264822 19 26 C17.25 25.8125 17.25 25.8125 15 25 C14.1028125 23.7934375 14.1028125 23.7934375 13.1875 22.5625 C10.41934669 19.31980612 8.09770855 18.86682296 4 18 C3.34 21.63 2.68 25.26 2 29 C1.34 29 0.68 29 0 29 C0 19.43 0 9.86 0 0 Z " fill="#D74B41" transform="translate(259,297)"/>
<path d="M0 0 C8.58 0 17.16 0 26 0 C26 2.31 26 4.62 26 7 C23.03 7 20.06 7 17 7 C17 15.58 17 24.16 17 33 C16.67 33 16.34 33 16 33 C15.67 27.72 15.34 22.44 15 17 C14.67 17 14.34 17 14 17 C13.97312721 15.18757948 13.95366285 13.37504767 13.9375 11.5625 C13.92589844 10.55316406 13.91429687 9.54382813 13.90234375 8.50390625 C14 6 14 6 15 5 C16.51928038 4.92820036 18.04167482 4.91607993 19.5625 4.9375 C20.38878906 4.94652344 21.21507812 4.95554687 22.06640625 4.96484375 C22.70449219 4.97644531 23.34257812 4.98804688 24 5 C24 4.01 24 3.02 24 2 C16.74 2 9.48 2 2 2 C2 3.32 2 4.64 2 6 C4.64 6 7.28 6 10 6 C10 14.91 10 23.82 10 33 C9.67 33 9.34 33 9 33 C9 24.42 9 15.84 9 7 C6.03 7 3.06 7 0 7 C-1.125 2.25 -1.125 2.25 0 0 Z " fill="#E69F93" transform="translate(353,295)"/>
<path d="M0 0 C7.26 0 14.52 0 22 0 C22 1.98 22 3.96 22 6 C21 7 21 7 18.77514648 7.11352539 C17.81680908 7.10828857 16.85847168 7.10305176 15.87109375 7.09765625 C14.31938477 7.09282227 14.31938477 7.09282227 12.73632812 7.08789062 C11.64771484 7.07951172 10.55910156 7.07113281 9.4375 7.0625 C7.7987793 7.05573242 7.7987793 7.05573242 6.12695312 7.04882812 C3.41791505 7.03699826 0.70898401 7.02051543 -2 7 C-1.34 4.69 -0.68 2.38 0 0 Z " fill="#DF7976" transform="translate(157,322)"/>
<path d="M0 0 C0.804375 0.474375 1.60875 0.94875 2.4375 1.4375 C2.4375 2.0975 2.4375 2.7575 2.4375 3.4375 C3.0975 3.4375 3.7575 3.4375 4.4375 3.4375 C7.41763893 9.14943294 8.24095757 14.00983948 7.4375 20.4375 C5.28532609 26.01358696 5.28532609 26.01358696 2.4375 27.4375 C2.4375 26.1175 2.4375 24.7975 2.4375 23.4375 C3.0975 23.4375 3.7575 23.4375 4.4375 23.4375 C4.416875 22.365 4.39625 21.2925 4.375 20.1875 C4.4232984 17.28959576 4.56905885 15.15137859 5.4375 12.4375 C4.7775 12.4375 4.1175 12.4375 3.4375 12.4375 C3.1075 10.1275 2.7775 7.8175 2.4375 5.4375 C1.7775 5.4375 1.1175 5.4375 0.4375 5.4375 C0.1075 6.7575 -0.2225 8.0775 -0.5625 9.4375 C-2.8725 8.1175 -5.1825 6.7975 -7.5625 5.4375 C-6.2425 4.7775 -4.9225 4.1175 -3.5625 3.4375 C-3.5625 2.7775 -3.5625 2.1175 -3.5625 1.4375 C-9.83717799 0.3626709 -14.46910831 0.55408802 -20.5625 2.4375 C-14.87539194 -4.14757249 -7.35674895 -3.22664428 0 0 Z " fill="#DC7671" transform="translate(312.5625,296.5625)"/>
<path d="M0 0 C4.29508593 0.58318598 7.25460544 2.12829212 10.9375 4.375 C14.88739881 6.7704225 18.84378167 8.98073446 23 11 C23 11.66 23 12.32 23 13 C20.39472895 13.10792837 17.79391689 13.18724878 15.1875 13.25 C14.44951172 13.28351563 13.71152344 13.31703125 12.95117188 13.3515625 C7.48798077 13.45044379 7.48798077 13.45044379 4.96875 11.125 C4 9 4 9 4.3125 6.75 C4.539375 6.1725 4.76625 5.595 5 5 C3.68 4.67 2.36 4.34 1 4 C0.67 2.68 0.34 1.36 0 0 Z " fill="#E05E58" transform="translate(264,209)"/>
<path d="M0 0 C0.96808594 -0.00257813 1.93617188 -0.00515625 2.93359375 -0.0078125 C5.5625 0.125 5.5625 0.125 8.5625 1.125 C8.2325 2.775 7.9025 4.425 7.5625 6.125 C6.87542969 6.0528125 6.18835938 5.980625 5.48046875 5.90625 C4.57941406 5.8134375 3.67835938 5.720625 2.75 5.625 C1.85667969 5.5321875 0.96335937 5.439375 0.04296875 5.34375 C-2.52055099 5.08107599 -2.52055099 5.08107599 -5.4375 5.125 C-5.416875 6.07375 -5.39625 7.0225 -5.375 8 C-5.4375 11.125 -5.4375 11.125 -6.4375 13.125 C-7.7575 13.125 -9.0775 13.125 -10.4375 13.125 C-11.48503521 7.88732394 -11.48503521 7.88732394 -11.4375 5.125 C-8.10884333 0.64853069 -5.37453849 -0.014275 0 0 Z " fill="#DC544F" transform="translate(337.4375,294.875)"/>
<path d="M0 0 C0.99 0.33 1.98 0.66 3 1 C2.49396008 3.16874252 2.00016187 4.99967627 1 7 C-0.0209375 6.7834375 -0.0209375 6.7834375 -1.0625 6.5625 C-6.99071506 5.40429491 -6.99071506 5.40429491 -13 5 C-12.85342916 6.96614267 -12.85342916 6.96614267 -12 9 C-9.91965706 10.1375213 -9.91965706 10.1375213 -7.4375 10.75 C-6.61121094 10.99234375 -5.78492188 11.2346875 -4.93359375 11.484375 C-4.29550781 11.65453125 -3.65742188 11.8246875 -3 12 C-5.64738916 13.4606285 -6.89448334 14 -10 14 C-10.33 14.99 -10.66 15.98 -11 17 C-14.15473719 16.64947365 -15.8233534 16.13480924 -18.375 14.1875 C-20 12 -20 12 -19.75 9.75 C-19.5025 9.1725 -19.255 8.595 -19 8 C-19 8.99 -19 9.98 -19 11 C-17.68 11 -16.36 11 -15 11 C-14.67 8.36 -14.34 5.72 -14 3 C-12.58456585 2.80341192 -11.16755969 2.61812454 -9.75 2.4375 C-8.96109375 2.33308594 -8.1721875 2.22867187 -7.359375 2.12109375 C-4.99467126 1.99972651 -3.2488963 2.30366743 -1 3 C-0.67 2.01 -0.34 1.02 0 0 Z " fill="#DF6763" transform="translate(346,297)"/>
<path d="M0 0 C2.03397373 1.01192477 4.00857089 2.09308816 5.98364258 3.21533203 C6.66749023 3.59238281 7.35133789 3.96943359 8.0559082 4.35791016 C9.72472054 5.27984145 11.38622122 6.21498715 13.04614258 7.15283203 C8.4581548 8.68554476 6.26669516 7.18194385 2.04614258 5.15283203 C2.04614258 4.49283203 2.04614258 3.83283203 2.04614258 3.15283203 C0.39614258 3.15283203 -1.25385742 3.15283203 -2.95385742 3.15283203 C-2.95385742 2.49283203 -2.95385742 1.83283203 -2.95385742 1.15283203 C-8.87706238 2.56925061 -16.55637911 4.75535372 -20.95385742 9.15283203 C-23.28683175 9.19376141 -25.62090967 9.19524926 -27.95385742 9.15283203 C-24.4054398 6.31409794 -20.60281739 4.10146195 -16.64135742 1.90283203 C-16.00262695 1.52642578 -15.36389648 1.15001953 -14.70581055 0.76220703 C-9.45502991 -2.13184025 -5.70121309 -2.47197419 0 0 Z " fill="#DB6666" transform="translate(256.953857421875,175.84716796875)"/>
<path d="M0 0 C3.40312738 1.05875074 6.01353231 2.00902154 9 4 C9 4.99 9 5.98 9 7 C9.66 7.33 10.32 7.66 11 8 C11 8.66 11 9.32 11 10 C10.34 10 9.68 10 9 10 C9 10.66 9 11.32 9 12 C8.443125 11.773125 7.88625 11.54625 7.3125 11.3125 C4.08994581 10.8770197 2.66296524 12.28210037 0 14 C-0.19393875 11.85473901 -0.37998676 9.70876323 -0.5625 7.5625 C-0.71912109 5.77005859 -0.71912109 5.77005859 -0.87890625 3.94140625 C-0.91886719 2.97074219 -0.95882812 2.00007812 -1 1 C-0.67 0.67 -0.34 0.34 0 0 Z " fill="#E4544F" transform="translate(255,204)"/>
<path d="M0 0 C1.3125 2.5625 1.3125 2.5625 2 5 C2.66 5 3.32 5 4 5 C4 6.98 4 8.96 4 11 C3.34 11 2.68 11 2 11 C2 11.66 2 12.32 2 13 C0.35 13 -1.3 13 -3 13 C-3 12.01 -3 11.02 -3 10 C-2.34 10 -1.68 10 -1 10 C-1.57944932 8.00136244 -1.57944932 8.00136244 -3 6 C-6.04199472 4.70768358 -6.04199472 4.70768358 -9 4 C-8.6875 2.0625 -8.6875 2.0625 -8 0 C-4.65284689 -1.1157177 -3.28928478 -1.1807689 0 0 Z " fill="#E34841" transform="translate(344,311)"/>
<path d="M0 0 C0.66 0 1.32 0 2 0 C2.33 2.31 2.66 4.62 3 7 C3.66 7 4.32 7 5 7 C4.67 10.63 4.34 14.26 4 18 C3.34 18 2.68 18 2 18 C2 19.65 2 21.3 2 23 C0.35 22.67 -1.3 22.34 -3 22 C-2.67128906 21.49597656 -2.34257812 20.99195313 -2.00390625 20.47265625 C-0.40130787 16.52540031 -0.88141485 12.60404866 -0.99023438 8.40039062 C-1.04889632 5.29130765 -0.99318363 2.9795509 0 0 Z " fill="#E05951" transform="translate(313,302)"/>
<path d="M0 0 C4.4771655 1.36802279 6.19042726 3.34755544 9 7 C9.99 7.33 10.98 7.66 12 8 C11.2265625 6.824375 11.2265625 6.824375 10.4375 5.625 C9.963125 4.75875 9.48875 3.8925 9 3 C9.33 2.34 9.66 1.68 10 1 C11.3421492 2.59679804 12.67347115 4.20270197 14 5.8125 C15.11375 7.15248047 15.11375 7.15248047 16.25 8.51953125 C18 11 18 11 18 14 C12.02743953 14.76800715 12.02743953 14.76800715 9.39111328 12.79736328 C7.84129327 11.11673089 6.44233835 9.38510805 5.0625 7.5625 C4.32290039 6.64500977 4.32290039 6.64500977 3.56835938 5.70898438 C0 1.22997573 0 1.22997573 0 0 Z " fill="#D97774" transform="translate(266,315)"/>
<path d="M0 0 C0.99 0 1.98 0 3 0 C3 0.66 3 1.32 3 2 C6.3 2 9.6 2 13 2 C13 2.66 13 3.32 13 4 C13.66 4 14.32 4 15 4 C15.33 5.32 15.66 6.64 16 8 C6.23891706 8.46155734 6.23891706 8.46155734 1.8125 6.8125 C0 5 0 5 -0.3125 2.3125 C-0.209375 1.549375 -0.10625 0.78625 0 0 Z " fill="#DB5B55" transform="translate(327,321)"/>
<path d="M0 0 C2.97 0 5.94 0 9 0 C9 8.91 9 17.82 9 27 C9.99 27 10.98 27 12 27 C11.98839844 26.03320312 11.97679687 25.06640625 11.96484375 24.0703125 C11.91334038 16.63911168 12.02716485 9.38312393 13 2 C13.33 2 13.66 2 14 2 C14 10.58 14 19.16 14 28 C12.35 28.33 10.7 28.66 9 29 C8 28 8 28 7.88647461 25.40795898 C7.89171143 24.28204346 7.89694824 23.15612793 7.90234375 21.99609375 C7.90556641 20.78115234 7.90878906 19.56621094 7.91210938 18.31445312 C7.92048828 17.03505859 7.92886719 15.75566406 7.9375 14.4375 C7.94201172 13.15423828 7.94652344 11.87097656 7.95117188 10.54882812 C7.96300455 7.36583978 7.97948932 4.18294238 8 1 C5.36 1 2.72 1 0 1 C0 0.67 0 0.34 0 0 Z " fill="#BF524E" transform="translate(355,300)"/>
<path d="M0 0 C-0.54984772 3.87511727 -2.27555331 5.59576506 -5.0625 8.25 C-5.79597656 8.95640625 -6.52945312 9.6628125 -7.28515625 10.390625 C-7.85105469 10.92171875 -8.41695313 11.4528125 -9 12 C-9.33 11.34 -9.66 10.68 -10 10 C-10.99 10.33 -11.98 10.66 -13 11 C-13 6.70091749 -11.2851319 4.62932713 -9 1 C-6.04335481 -0.4783226 -3.25770263 -0.06032783 0 0 Z " fill="#DA726F" transform="translate(283,295)"/>
<path d="M0 0 C6.27 0 12.54 0 19 0 C19 1.98 19 3.96 19 6 C15.04 5.67 11.08 5.34 7 5 C7 4.34 7 3.68 7 3 C4.69 2.67 2.38 2.34 0 2 C0 1.34 0 0.68 0 0 Z " fill="#DE5D58" transform="translate(160,322)"/>
<path d="M0 0 C0.66 0 1.32 0 2 0 C2.02712066 1.43739513 2.04645067 2.87493863 2.0625 4.3125 C2.07410156 5.11300781 2.08570313 5.91351563 2.09765625 6.73828125 C2 9 2 9 1 12 C1.66 12 2.32 12 3 12 C3 12.66 3 13.32 3 14 C3.66 14.33 4.32 14.66 5 15 C4.125 19.875 4.125 19.875 3 21 C2.76924918 22.34747084 2.58846937 23.70377565 2.4375 25.0625 C2.293125 26.361875 2.14875 27.66125 2 29 C1.34 29 0.68 29 0 29 C0 19.43 0 9.86 0 0 Z " fill="#EB4943" transform="translate(259,297)"/>
<path d="M0 0 C2 2 2 2 2.125 5.125 C2.08375 6.07375 2.0425 7.0225 2 8 C2.66 8 3.32 8 4 8 C3.67 9.32 3.34 10.64 3 12 C3 11.34 3 10.68 3 10 C-1.29 10 -5.58 10 -10 10 C-10 8.68 -10 7.36 -10 6 C-7.59454362 4.79727181 -6.05003047 4.89928528 -3.375 4.9375 C-2.14910156 4.95103516 -2.14910156 4.95103516 -0.8984375 4.96484375 C0.04128906 4.98224609 0.04128906 4.98224609 1 5 C0.67 3.35 0.34 1.7 0 0 Z " fill="#DC4C47" transform="translate(228,311)"/>
<path d="M0 0 C0.33 0 0.66 0 1 0 C1.33 2.97 1.66 5.94 2 9 C2.66 9 3.32 9 4 9 C4.28875 8.360625 4.5775 7.72125 4.875 7.0625 C6 5 6 5 8 4 C7.67 5.32 7.34 6.64 7 8 C7.99 8 8.98 8 10 8 C11 11 11 11 10.0625 13.1875 C9.711875 13.785625 9.36125 14.38375 9 15 C8.01 15 7.02 15 6 15 C5.67 14.34 5.34 13.68 5 13 C4.34 13 3.68 13 3 13 C2.67 13.99 2.34 14.98 2 16 C2 15.01 2 14.02 2 13 C1.34 13 0.68 13 0 13 C0 8.71 0 4.42 0 0 Z " fill="#E68380" transform="translate(263,297)"/>
<path d="M0 0 C0.66 0.33 1.32 0.66 2 1 C1.34 3.64 0.68 6.28 0 9 C0.99 9.33 1.98 9.66 3 10 C2.67 11.65 2.34 13.3 2 15 C4.64 14.67 7.28 14.34 10 14 C10 14.66 10 15.32 10 16 C4.158256 16.35050464 0.1468192 16.16727335 -5 13 C-3.78184562 8.31479085 -2.30440013 4.29456388 0 0 Z " fill="#E65F5B" transform="translate(219,300)"/>
<path d="M0 0 C2.22777065 3.34165598 3.6892376 6.79841055 5.1875 10.5 C5.47302734 11.17675781 5.75855469 11.85351562 6.05273438 12.55078125 C8.11798022 17.64605933 8.11798022 17.64605933 7 21 C4.3144406 18.3144406 3.93950026 15.62378672 3 12 C-0.04913228 10.98888907 -0.04913228 10.98888907 -3 12 C-3.33 10.35 -3.66 8.7 -4 7 C-2.68 6.67 -1.36 6.34 0 6 C0 4.02 0 2.04 0 0 Z " fill="#DD716D" transform="translate(230,302)"/>
<path d="M0 0 C5.61 0 11.22 0 17 0 C17 1.65 17 3.3 17 5 C16 6 16 6 12.62109375 6.09765625 C11.22652923 6.09098369 9.83198257 6.07902532 8.4375 6.0625 C7.72658203 6.05798828 7.01566406 6.05347656 6.28320312 6.04882812 C4.52209987 6.03700864 2.76103964 6.01907263 1 6 C1 8.31 1 10.62 1 13 C0.67 13 0.34 13 0 13 C0 10.36 0 7.72 0 5 C4.95 5 9.9 5 15 5 C15 4.34 15 3.68 15 3 C7.575 2.01 7.575 2.01 0 1 C0 0.67 0 0.34 0 0 Z " fill="#D97C79" transform="translate(160,309)"/>
<path d="M0 0 C0.33 0 0.66 0 1 0 C1 9.24 1 18.48 1 28 C0.01 27.67 -0.98 27.34 -2 27 C-1.67 25.35 -1.34 23.7 -1 22 C-1.66 22 -2.32 22 -3 22 C-2.67 21.34 -2.34 20.68 -2 20 C-1.79201618 17.37131559 -1.62580793 14.75764738 -1.5 12.125 C-1.08048832 3.43955449 -1.08048832 3.43955449 0 0 Z " fill="#CC4742" transform="translate(137,300)"/>
<path d="M0 0 C6.27 0 12.54 0 19 0 C19 0.99 19 1.98 19 3 C16.20826945 3.02690104 13.41679652 3.04679053 10.625 3.0625 C9.43390625 3.07506836 9.43390625 3.07506836 8.21875 3.08789062 C2.2265625 3.11328125 2.2265625 3.11328125 0 2 C0 1.34 0 0.68 0 0 Z " fill="#E94C48" transform="translate(158,297)"/>
<path d="M0 0 C0.99 0.33 1.98 0.66 3 1 C2.49396008 3.16874252 2.00016187 4.99967627 1 7 C-0.0209375 6.7834375 -0.0209375 6.7834375 -1.0625 6.5625 C-6.99071506 5.40429491 -6.99071506 5.40429491 -13 5 C-12.67 6.65 -12.34 8.3 -12 10 C-12.99 10.495 -12.99 10.495 -14 11 C-14 8.36 -14 5.72 -14 3 C-12.58456585 2.80341192 -11.16755969 2.61812454 -9.75 2.4375 C-8.96109375 2.33308594 -8.1721875 2.22867187 -7.359375 2.12109375 C-4.99467126 1.99972651 -3.2488963 2.30366743 -1 3 C-0.67 2.01 -0.34 1.02 0 0 Z " fill="#DB7E7A" transform="translate(346,297)"/>
<path d="M0 0 C0.66 0.33 1.32 0.66 2 1 C2 1.66 2 2.32 2 3 C0.68 3.33 -0.64 3.66 -2 4 C-2.33 9.28 -2.66 14.56 -3 20 C-0.69 19.01 1.62 18.02 4 17 C6.4375 17.3125 6.4375 17.3125 8 18 C6.56705502 18.84114171 5.12845595 19.67265687 3.6875 20.5 C2.88699219 20.9640625 2.08648437 21.428125 1.26171875 21.90625 C-1 23 -1 23 -4 23 C-4.11608726 19.72946483 -4.18720711 16.4594582 -4.25 13.1875 C-4.28351563 12.25873047 -4.31703125 11.32996094 -4.3515625 10.37304688 C-4.36445313 9.48037109 -4.37734375 8.58769531 -4.390625 7.66796875 C-4.41157227 6.84578857 -4.43251953 6.0236084 -4.45410156 5.17651367 C-4 3 -4 3 -1.97558594 1.20825195 C-0.9976709 0.61016724 -0.9976709 0.61016724 0 0 Z " fill="#D5807B" transform="translate(188,205)"/>
<path d="M0 0 C1.4370809 -0.05422947 2.87475462 -0.09289723 4.3125 -0.125 C5.11300781 -0.14820313 5.91351563 -0.17140625 6.73828125 -0.1953125 C9 0 9 0 12 2 C12 2.66 12 3.32 12 4 C6.72 4 1.44 4 -4 4 C-4.33 3.34 -4.66 2.68 -5 2 C-3.35 2 -1.7 2 0 2 C0 1.34 0 0.68 0 0 Z " fill="#D35854" transform="translate(275,218)"/>
<path d="M0 0 C0.33 0.66 0.66 1.32 1 2 C3.33247815 2.62852934 5.69291467 3.15535246 8.0625 3.625 C9.99802734 4.01558594 9.99802734 4.01558594 11.97265625 4.4140625 C12.97167969 4.60742188 13.97070312 4.80078125 15 5 C14.67 5.99 14.34 6.98 14 8 C12.54176788 8.0270043 11.08339325 8.04639787 9.625 8.0625 C8.81289063 8.07410156 8.00078125 8.08570313 7.1640625 8.09765625 C5 8 5 8 3 7 C3 6.01 3 5.02 3 4 C2.01 4 1.02 4 0 4 C0 2.68 0 1.36 0 0 Z " fill="#E44A3F" transform="translate(292,319)"/>
<path d="M0 0 C1.32 0 2.64 0 4 0 C4.66 1.32 5.32 2.64 6 4 C6.33 4 6.66 4 7 4 C7 5.98 7 7.96 7 10 C5.68 10.33 4.36 10.66 3 11 C3 9.35 3 7.7 3 6 C1.68 5.67 0.36 5.34 -1 5 C-0.67 3.35 -0.34 1.7 0 0 Z " fill="#E54941" transform="translate(223,298)"/>
<path d="M0 0 C0.33 0.99 0.66 1.98 1 3 C0.67 3.66 0.34 4.32 0 5 C-0.66 5 -1.32 5 -2 5 C-2.02725341 6.7290774 -2.04650987 8.45828176 -2.0625 10.1875 C-2.07410156 11.15042969 -2.08570313 12.11335938 -2.09765625 13.10546875 C-2.00486622 15.85576513 -1.62111685 18.32479591 -1 21 C-1.66 21.33 -2.32 21.66 -3 22 C-5.42236837 17.15526326 -5.96239395 12.17900452 -4.39453125 7 C-3.24999545 4.21128334 -2.14069829 2.14069829 0 0 Z " fill="#D66E6A" transform="translate(291,299)"/>
<path d="M0 0 C1.32 0 2.64 0 4 0 C4.33 0.66 4.66 1.32 5 2 C5.99 2.66 6.98 3.32 8 4 C6.21118264 5.00508801 4.41885304 6.00392736 2.625 7 C1.62726563 7.556875 0.62953125 8.11375 -0.3984375 8.6875 C-3 10 -3 10 -5 10 C-5 9.01 -5 8.02 -5 7 C-3.68 6.67 -2.36 6.34 -1 6 C-0.67 4.02 -0.34 2.04 0 0 Z " fill="#E45351" transform="translate(236,194)"/>
<path d="M0 0 C3.3 0 6.6 0 10 0 C10.33 1.65 10.66 3.3 11 5 C9.54176788 5.0270043 8.08339325 5.04639787 6.625 5.0625 C5.81289062 5.07410156 5.00078125 5.08570313 4.1640625 5.09765625 C2 5 2 5 0 4 C0 2.68 0 1.36 0 0 Z " fill="#ED5E5A" transform="translate(136,297)"/>
<path d="M0 0 C3.3566285 2.23775234 3.57996014 2.93320048 4.6875 6.625 C5.06455078 7.85089844 5.06455078 7.85089844 5.44921875 9.1015625 C5.63097656 9.72804688 5.81273437 10.35453125 6 11 C1.20719998 10.19095897 -0.13520113 7.74015409 -3 4 C-2.67 3.34 -2.34 2.68 -2 2 C-1.34 2.33 -0.68 2.66 0 3 C0 2.01 0 1.02 0 0 Z " fill="#E5544F" transform="translate(272,312)"/>
<path d="M0 0 C0.66 0.33 1.32 0.66 2 1 C2.3235827 7.06417949 2.49955154 11.7506727 -1 17 C-1.66 17.33 -2.32 17.66 -3 18 C-3 16.68 -3 15.36 -3 14 C-2.34 14 -1.68 14 -1 14 C-0.67 9.38 -0.34 4.76 0 0 Z " fill="#D46E67" transform="translate(318,306)"/>
<path d="M0 0 C0.33 0 0.66 0 1 0 C1 2.31 1 4.62 1 7 C0.34 7 -0.32 7 -1 7 C-1 8.65 -1 10.3 -1 12 C-2.65 11.67 -4.3 11.34 -6 11 C-5.71125 10.443125 -5.4225 9.88625 -5.125 9.3125 C-3.94777265 6.97953039 -3.94777265 6.97953039 -3 4.375 C-2 2 -2 2 0 0 Z " fill="#E44C44" transform="translate(316,313)"/>
<path d="M0 0 C0.66 0 1.32 0 2 0 C2 0.66 2 1.32 2 2 C8.27 2.33 14.54 2.66 21 3 C21 3.33 21 3.66 21 4 C15.39 4 9.78 4 4 4 C4 6.64 4 9.28 4 12 C3.67 12 3.34 12 3 12 C3 9.69 3 7.38 3 5 C2.34 5 1.68 5 1 5 C0.67 3.35 0.34 1.7 0 0 Z " fill="#D04843" transform="translate(156,297)"/>
<path d="M0 0 C1.65 0 3.3 0 5 0 C0.7976162 3.78214542 -6.09443215 9 -12 9 C-12 8.01 -12 7.02 -12 6 C-10.35 6 -8.7 6 -7 6 C-7 5.34 -7 4.68 -7 4 C-6.01 4 -5.02 4 -4 4 C-4 3.34 -4 2.68 -4 2 C-2.68 2 -1.36 2 0 2 C0 1.34 0 0.68 0 0 Z " fill="#DA706E" transform="translate(208,213)"/>
<path d="M0 0 C0.33 0 0.66 0 1 0 C1 6.6 1 13.2 1 20 C-4.625 18.875 -4.625 18.875 -7 16 C-4.69 16.33 -2.38 16.66 0 17 C0 11.39 0 5.78 0 0 Z " fill="#E1989A" transform="translate(316,208)"/>
<path d="M0 0 C0.96808594 -0.01417969 1.93617188 -0.02835937 2.93359375 -0.04296875 C5.5625 0.1875 5.5625 0.1875 8.5625 2.1875 C4.32874618 3.31650102 0.30633167 3.23203206 -4.03515625 3.125 C-6.33462368 3.18482354 -8.23948618 3.53774072 -10.4375 4.1875 C-6.98167331 0.57459028 -5.00332183 0.03322259 0 0 Z " fill="#DA7F7D" transform="translate(337.4375,294.8125)"/>
<path d="M0 0 C0.33 0.66 0.66 1.32 1 2 C2.32 2 3.64 2 5 2 C5 2.99 5 3.98 5 5 C5.66 5 6.32 5 7 5 C7.33 5.99 7.66 6.98 8 8 C3.1725201 6.58707905 -0.7162359 4.57025846 -5 2 C-5 1.67 -5 1.34 -5 1 C-3.35 0.67 -1.7 0.34 0 0 Z " fill="#DB6D6C" transform="translate(301,216)"/>
<path d="M0 0 C3 3.75 3 3.75 3 6 C-2.75 7.125 -2.75 7.125 -5 6 C-5.625 3.4375 -5.625 3.4375 -6 1 C-5.34 1 -4.68 1 -4 1 C-4 1.66 -4 2.32 -4 3 C-3.01 3 -2.02 3 -1 3 C-0.67 2.01 -0.34 1.02 0 0 Z " fill="#D37978" transform="translate(238,322)"/>
<path d="M0 0 C2.5625 0.5 2.5625 0.5 4.5 2.75 C5.5625 5.5 5.5625 5.5 4.75 7.8125 C4.358125 8.369375 3.96625 8.92625 3.5625 9.5 C3.2325 7.52 2.9025 5.54 2.5625 3.5 C0.2525 3.5 -2.0575 3.5 -4.4375 3.5 C-2.4375 0.5 -2.4375 0.5 0 0 Z " fill="#DA7070" transform="translate(224.4375,294.5)"/>
<path d="M0 0 C7.50769231 0.49230769 7.50769231 0.49230769 10 3.0625 C10.33 3.701875 10.66 4.34125 11 5 C9.783125 4.835 8.56625 4.67 7.3125 4.5 C4.18392164 4.10545459 1.15831196 3.90130275 -2 4 C-1.34 2.68 -0.68 1.36 0 0 Z " fill="#EB483D" transform="translate(265,186)"/>
<path d="M0 0 C1.34498268 0.28268441 2.67703821 0.62762789 4 1 C5.58226891 1.35889212 7.16562863 1.71300632 8.75 2.0625 C9.54921875 2.23910156 10.3484375 2.41570312 11.171875 2.59765625 C11.77515625 2.73042969 12.3784375 2.86320312 13 3 C13 3.33 13 3.66 13 4 C9.7 4 6.4 4 3 4 C3 3.34 3 2.68 3 2 C2.01 2 1.02 2 0 2 C0 3.32 0 4.64 0 6 C-0.99 5.67 -1.98 5.34 -3 5 C-1.125 1.125 -1.125 1.125 0 0 Z " fill="#D88782" transform="translate(327,319)"/>
<path d="M0 0 C0 0.66 0 1.32 0 2 C-4.95 2 -9.9 2 -15 2 C-15 1.67 -15 1.34 -15 1 C-4.63414634 -2.31707317 -4.63414634 -2.31707317 0 0 Z " fill="#D44A41" transform="translate(175,312)"/>
<path d="M0 0 C0.89203125 0.01804687 1.7840625 0.03609375 2.703125 0.0546875 C3.71632813 0.08949219 3.71632813 0.08949219 4.75 0.125 C4.42 1.445 4.09 2.765 3.75 4.125 C2.1454444 3.98351011 0.54136233 3.83664314 -1.0625 3.6875 C-1.95582031 3.60628906 -2.84914063 3.52507812 -3.76953125 3.44140625 C-6.25 3.125 -6.25 3.125 -9.25 2.125 C-6.03817851 0.21891902 -3.71117397 -0.09766247 0 0 Z " fill="#E84B43" transform="translate(341.25,296.875)"/>
<path d="M0 0 C0.33 0 0.66 0 1 0 C1.33 3.96 1.66 7.92 2 12 C0.68 12.33 -0.64 12.66 -2 13 C-2.33 12.34 -2.66 11.68 -3 11 C-2.34 10.01 -1.68 9.02 -1 8 C-0.54860541 5.9507906 -0.54860541 5.9507906 -0.375 3.8125 C-0.25125 2.554375 -0.1275 1.29625 0 0 Z " fill="#D2514B" transform="translate(292,309)"/>
<path d="M0 0 C0.66 0.66 1.32 1.32 2 2 C1.75 4.5625 1.75 4.5625 1 7 C0.01 7.495 0.01 7.495 -1 8 C-1 7.34 -1 6.68 -1 6 C-1.99 6.33 -2.98 6.66 -4 7 C-4 4 -4 4 -2 1.8125 C-1.34 1.214375 -0.68 0.61625 0 0 Z " fill="#D94F47" transform="translate(274,299)"/>
<path d="M0 0 C2.31 0.33 4.62 0.66 7 1 C6.443125 1.268125 5.88625 1.53625 5.3125 1.8125 C1.42501684 3.80877514 -2.04519577 5.73416375 -5 9 C-4.67 6.69 -4.34 4.38 -4 2 C-2.02 2.495 -2.02 2.495 0 3 C0 2.01 0 1.02 0 0 Z " fill="#DE7371" transform="translate(298,299)"/>
<path d="M0 0 C0.33 1.32 0.66 2.64 1 4 C2.65 4 4.3 4 6 4 C6.66 5.32 7.32 6.64 8 8 C3.25981099 6.16508812 -1.36413251 4.08058541 -6 2 C-6 1.67 -6 1.34 -6 1 C-4.02 0.67 -2.04 0.34 0 0 Z " fill="#DA7E7B" transform="translate(278,204)"/>
<path d="M0 0 C0.66 0.33 1.32 0.66 2 1 C0.5625 3.4375 0.5625 3.4375 -2 6 C-4.99304558 6.73151889 -7.92553213 6.92773687 -11 7 C-7.53252172 4.22601737 -3.93597489 2.04087587 0 0 Z " fill="#DA736E" transform="translate(232,210)"/>
<path d="M0 0 C0.33 0.66 0.66 1.32 1 2 C0.67 2.66 0.34 3.32 0 4 C2.31 4 4.62 4 7 4 C7 4.33 7 4.66 7 5 C2.71 5 -1.58 5 -6 5 C-6 4.34 -6 3.68 -6 3 C-4.02 2.01 -2.04 1.02 0 0 Z " fill="#C86666" transform="translate(220,217)"/>
<path d="M0 0 C0.61875 0.66 1.2375 1.32 1.875 2 C6.24240721 4.79514062 9.95182061 4.35288244 15 4 C15 4.66 15 5.32 15 6 C12.87527424 6.05386629 10.75016348 6.09273071 8.625 6.125 C6.84996094 6.15980469 6.84996094 6.15980469 5.0390625 6.1953125 C2 6 2 6 0 4 C0 2.68 0 1.36 0 0 Z " fill="#DD817E" transform="translate(294,317)"/>
<path d="M0 0 C-4.51350747 3.52273754 -7.28341664 4.45732667 -13 4 C-9.0516245 0.65906688 -5.11813443 -1.70604481 0 0 Z " fill="#E06365" transform="translate(242,181)"/>
<path d="M0 0 C3.3 0 6.6 0 10 0 C9.67 1.65 9.34 3.3 9 5 C5.35008834 3.68197635 3.2104799 2.40785992 0 0 Z " fill="#DC6C68" transform="translate(286,212)"/>
<path d="M0 0 C-2 3 -2 3 -4.3828125 3.73046875 C-5.28773438 3.88128906 -6.19265625 4.03210938 -7.125 4.1875 C-8.49011719 4.42533203 -8.49011719 4.42533203 -9.8828125 4.66796875 C-10.58148438 4.77753906 -11.28015625 4.88710937 -12 5 C-8.21249718 1.09480642 -5.54448009 -0.30802667 0 0 Z " fill="#D8766C" transform="translate(203,200)"/>
<path d="M0 0 C3.46941546 0.45822468 6.67395049 0.89131683 10 2 C9.67 3.98 9.34 5.96 9 8 C8.01 7.67 7.02 7.34 6 7 C6.66 7 7.32 7 8 7 C7.42055068 5.00136244 7.42055068 5.00136244 6 3 C2.95800528 1.70768358 2.95800528 1.70768358 0 1 C0 0.67 0 0.34 0 0 Z " fill="#DA6F6E" transform="translate(335,314)"/>
<path d="M0 0 C0.66 0 1.32 0 2 0 C1.67 1.65 1.34 3.3 1 5 C3.64 4.67 6.28 4.34 9 4 C9 4.66 9 5.32 9 6 C7.5629191 6.05422947 6.12524538 6.09289723 4.6875 6.125 C3.88699219 6.14820313 3.08648437 6.17140625 2.26171875 6.1953125 C0 6 0 6 -3 4 C-1.625 2 -1.625 2 0 0 Z " fill="#E68E83" transform="translate(220,310)"/>
<path d="M0 0 C0.33 0.99 0.66 1.98 1 3 C1.99 3 2.98 3 4 3 C4 3.99 4 4.98 4 6 C2.68 6.33 1.36 6.66 0 7 C0 6.34 0 5.68 0 5 C-0.66 5 -1.32 5 -2 5 C-2 3.68 -2 2.36 -2 1 C-1.34 0.67 -0.68 0.34 0 0 Z " fill="#E3483F" transform="translate(268,309)"/>
<path d="M0 0 C1.79379098 0.44994757 3.58498928 0.91024143 5.375 1.375 C6.37273437 1.63023437 7.37046875 1.88546875 8.3984375 2.1484375 C11 3 11 3 13 5 C10.34501768 6.0169313 9.30844625 6.13022151 6.640625 5.00390625 C5.85171875 4.52824219 5.0628125 4.05257812 4.25 3.5625 C3.45078125 3.08941406 2.6515625 2.61632812 1.828125 2.12890625 C1.22484375 1.75636719 0.6215625 1.38382813 0 1 C0 0.67 0 0.34 0 0 Z " fill="#DA7C7C" transform="translate(256,196)"/>
<path d="M0 0 C1.33333333 0 2.66666667 0 4 0 C4 1.98 4 3.96 4 6 C2.68 6 1.36 6 0 6 C-1.125 2.25 -1.125 2.25 0 0 Z " fill="#E54943" transform="translate(327,302)"/>
<path d="M0 0 C-1.26691507 0.67408308 -2.53870749 1.33900497 -3.8125 2 C-4.52019531 2.37125 -5.22789062 2.7425 -5.95703125 3.125 C-8 4 -8 4 -11 4 C-11 3.34 -11 2.68 -11 2 C-4.03571429 -1.34821429 -4.03571429 -1.34821429 0 0 Z " fill="#CB6865" transform="translate(196,223)"/>
<path d="M0 0 C1.98 0.66 3.96 1.32 6 2 C6 2.99 6 3.98 6 5 C6.99 5.33 7.98 5.66 9 6 C8.01 6.495 8.01 6.495 7 7 C6.01 6.67 5.02 6.34 4 6 C4 5.34 4 4.68 4 4 C3.34 4 2.68 4 2 4 C2 3.34 2 2.68 2 2 C1.34 2 0.68 2 0 2 C0 1.34 0 0.68 0 0 Z " fill="#D87773" transform="translate(289,321)"/>
<path d="M0 0 C0.99 0.33 1.98 0.66 3 1 C3 2.98 3 4.96 3 7 C2.01 7 1.02 7 0 7 C0 4.69 0 2.38 0 0 Z " fill="#EC473E" transform="translate(230,312)"/>
<path d="M0 0 C0.93423645 3.01031744 1.04449911 3.86650268 0 7 C1.32 7.66 2.64 8.32 4 9 C2.35 9 0.7 9 -1 9 C-2.25541557 5.23375329 -1.37061958 3.62811066 0 0 Z " fill="#DFABA7" transform="translate(210,320)"/>
<path d="M0 0 C0.66 0.33 1.32 0.66 2 1 C1.34 3.31 0.68 5.62 0 8 C-0.99 8 -1.98 8 -3 8 C-1.125 2.25 -1.125 2.25 0 0 Z " fill="#DE7F79" transform="translate(219,300)"/>
<path d="M0 0 C2.475 0.495 2.475 0.495 5 1 C5 2.32 5 3.64 5 5 C3.68 4.67 2.36 4.34 1 4 C0.67 2.68 0.34 1.36 0 0 Z " fill="#D96E69" transform="translate(264,209)"/>
<path d="M0 0 C2.64 0 5.28 0 8 0 C5.37801226 2.15377564 3.35595828 3.40072174 0 4 C0 2.68 0 1.36 0 0 Z " fill="#DD7573" transform="translate(221,205)"/>
<path d="M0 0 C-2.52956528 3.0916909 -5.22454612 3.90931332 -9 5 C-9 4.01 -9 3.02 -9 2 C-5.86501708 0.14223235 -3.62528568 -0.20140476 0 0 Z " fill="#DE8B86" transform="translate(240,199)"/>
<path d="M0 0 C3.77545388 1.09068668 6.47043472 1.9083091 9 5 C5.625 4.75 5.625 4.75 2 4 C0.5625 1.9375 0.5625 1.9375 0 0 Z " fill="#DF8382" transform="translate(261,179)"/>
<path d="M0 0 C-0.5625 1.9375 -0.5625 1.9375 -2 4 C-5.625 4.75 -5.625 4.75 -9 5 C-7.36885863 1.73771726 -3.62038485 0 0 0 Z " fill="#DC8080" transform="translate(246,176)"/>
<path d="M0 0 C1.875 0.1875 1.875 0.1875 4 1 C5.25 3.5625 5.25 3.5625 6 6 C5.01 6 4.02 6 3 6 C2.01 4.02 1.02 2.04 0 0 Z " fill="#D77773" transform="translate(343,310)"/>
<path d="M0 0 C5.75 1.75 5.75 1.75 8 4 C6.02 4 4.04 4 2 4 C1.34 2.68 0.68 1.36 0 0 Z " fill="#E17D7A" transform="translate(297,198)"/>
</svg>
